<?xml version="1.0" encoding="utf-8"?>
<!-- Generator: Adobe Illustrator 22.1.0, SVG Export Plug-In . SVG Version: 6.00 Build 0)  -->
<svg version="1.1" id="Layer_1" xmlns="http://www.w3.org/2000/svg" xmlns:xlink="http://www.w3.org/1999/xlink" x="0px" y="0px"
	 viewBox="0 0 100 100" style="enable-background:new 0 0 100 100;" xml:space="preserve">
<style type="text/css">
	.st0{display:none;}
	.st1{display:inline;fill:#FF00A9;stroke:#FF00A9;stroke-miterlimit:10;}
	.st2{display:inline;fill:#FFFFFF;stroke:#FF00A9;stroke-miterlimit:10;}
	.st3{display:inline;}
	.st4{fill:#FF59A9;}
	.st5{fill:#B0E4D8;}
	.st6{display:inline;fill:#FF00A9;}
	.st7{display:inline;fill:#FFFFFF;}
	.st8{fill:#FF6BCD;}
</style>
<g class="st0">
	<path class="st1" d="M53.7,18.6L23.8,6.4c-4.6-1.9-9.5,2-8.8,6.9l4.4,31.9c0.7,4.9,6.5,7.3,10.4,4.2l7.9-6.2
		c0.1,0.3,0.3,0.5,0.5,0.8L52,62.7L47.6,76c-0.6,2-0.3,4.1,1,5.8l7.8,10.5c3.1,4.2,9.6,3.1,11.2-1.9L70,83c0.8-2.6,3.2-4.4,5.9-4.4
		l7.8-0.2c5.2-0.1,8.1-6,5-10.2L81,57.7c-1.2-1.7-3.2-2.6-5.2-2.6l-14.1,0.3L47.8,36.9c-0.2-0.3-0.5-0.6-0.8-0.9l8.2-6.4
		C59.1,26.6,58.3,20.5,53.7,18.6z"/>
	<path class="st2" d="M17.5,7.3c1.7-1.3,4-1.7,6.3-0.8l29.9,12.1c4.6,1.9,5.5,8,1.5,11.1L47,36c0.3,0.3,0.5,0.5,0.8,0.9l13.8,18.6
		l14.1-0.3c2.1,0,4,0.9,5.2,2.6l7.8,10.5c2.3,3,1.3,7-1.3,8.9c-1,0.7-2.2,1.2-3.7,1.2l-7.8,0.2c-1.4,0-2.6,0.5-3.7,1.3
		c-1,0.8-1.8,1.9-2.3,3.2l-2.4,7.5c-0.4,1.3-1.2,2.4-2.2,3.2c-2.7,2-6.7,1.7-8.9-1.3l-7.8-10.5c-1.2-1.7-1.6-3.8-1-5.8L52,62.7
		L38.1,44.1c-0.2-0.2-0.3-0.5-0.5-0.8l-7.9,6.2c0,0-0.1,0.1-0.1,0.1c-3.9,2.9-9.6,0.6-10.3-4.3l-4.4-31.9
		C14.6,10.8,15.7,8.6,17.5,7.3 M15,4c-3.1,2.3-4.7,6.1-4.1,9.9l4.4,31.9c0.5,3.7,2.9,6.8,6.4,8.3c3.5,1.5,7.3,1,10.4-1.3l0.2-0.1
		l4.5-3.5l10.6,14.3l-3.7,11.4c-1,3.2-0.4,6.7,1.6,9.4l7.8,10.5c3.4,4.6,10,5.6,14.6,2.1c1.7-1.3,3-3.1,3.7-5.2l2.4-7.5
		c0.1-0.5,0.4-0.9,0.8-1.1c0.4-0.3,0.8-0.4,1.3-0.5l7.8-0.2c2.2,0,4.3-0.8,6-2c2.1-1.6,3.6-4,4.1-6.7c0.5-2.8-0.2-5.7-1.9-8
		l-7.8-10.5c-2-2.7-5.2-4.3-8.6-4.2l-12,0.3L52.8,36.7l4.9-3.8c3-2.3,4.5-6,4-9.8c-0.5-3.8-2.9-6.9-6.5-8.3L25.3,2.7
		C21.9,1.3,18,1.8,15,4L15,4z"/>
</g>
<g class="st0">
	<g class="st3">
		<path class="st4" d="M74.8,68.8c0.9-1.1,2.6-1.2,3.6-0.2l7.3,6.5l5.8-1.3c0.9-0.2,1.7,0,2.4,0.6l4.1,3.7c1.6,1.5,1,4.2-1.2,4.7
			l-3.2,0.7c-1.1,0.3-2,1.2-2.1,2.3l-0.4,3.3c-0.2,2.2-2.8,3.2-4.5,1.7l-4.2-3.7c-0.7-0.6-1-1.4-0.9-2.3l0.6-5.9L75,72.4
			C73.9,71.4,73.8,69.8,74.8,68.8z"/>
	</g>
	<g class="st3">
		<g>
			<path class="st5" d="M74.9,46.9c4.7-3.2,7.8-8.7,7.8-14.8c0-9.9-8.1-18-18-18c-6.7,0-12.6,3.7-15.7,9.2c-3.1-5.5-9-9.2-15.7-9.2
				c-9.9,0-18,8.1-18,18c0,6.2,3.1,11.6,7.8,14.8c-4.7,3.2-7.8,8.7-7.8,14.8c0,9.9,8.1,18,18,18c6.7,0,12.6-3.7,15.7-9.2
				c3.1,5.5,9,9.2,15.7,9.2c9.9,0,18-8.1,18-18C82.7,55.5,79.6,50.1,74.9,46.9z M49,52.9c-1.4-2.4-3.2-4.5-5.5-6
				c2.3-1.6,4.1-3.6,5.5-6c1.4,2.4,3.2,4.5,5.5,6C52.3,48.4,50.4,50.5,49,52.9z"/>
		</g>
		<g>
			<path class="st5" d="M64.7,80c-6.4,0-12.4-3.4-15.7-8.9c-3.3,5.5-9.3,8.9-15.7,8.9c-10.1,0-18.3-8.2-18.3-18.3
				c0-5.9,2.8-11.4,7.6-14.8c-4.8-3.4-7.6-8.9-7.6-14.8c0-10.1,8.2-18.3,18.3-18.3c6.4,0,12.4,3.4,15.7,8.9
				c3.3-5.5,9.3-8.9,15.7-8.9C74.8,13.8,83,22,83,32c0,5.9-2.8,11.4-7.6,14.8c4.8,3.4,7.6,8.9,7.6,14.8C83,71.8,74.8,80,64.7,80z
				 M49,69.9l0.3,0.4c3.1,5.6,9.1,9,15.4,9c9.8,0,17.7-7.9,17.7-17.7c0-5.8-2.9-11.3-7.7-14.6l-0.3-0.2l0.3-0.2
				c4.8-3.3,7.7-8.8,7.7-14.6c0-9.8-7.9-17.7-17.7-17.7c-6.4,0-12.3,3.5-15.4,9L49,23.8l-0.3-0.4c-3.1-5.6-9.1-9-15.4-9
				c-9.8,0-17.7,7.9-17.7,17.7c0,5.8,2.9,11.3,7.7,14.6l0.3,0.2l-0.3,0.2c-4.8,3.3-7.7,8.8-7.7,14.6c0,9.8,7.9,17.7,17.7,17.7
				c6.4,0,12.3-3.5,15.4-9L49,69.9z M49,53.5L48.8,53c-1.3-2.3-3.2-4.4-5.4-5.9L43,46.9l0.3-0.2c2.2-1.5,4.1-3.6,5.4-5.9l0.3-0.4
				l0.3,0.4c1.3,2.3,3.2,4.4,5.4,5.9l0.3,0.2l-0.3,0.2c-2.2,1.5-4.1,3.6-5.4,5.9L49,53.5z M44,46.9c2,1.5,3.7,3.3,5,5.4
				c1.3-2.1,3-4,5-5.4c-2-1.5-3.7-3.3-5-5.4C47.8,43.6,46.1,45.4,44,46.9z"/>
		</g>
	</g>
	<g class="st3">
		<path class="st4" d="M5,5.4l12.5,2.6c1.4,0.3,2,2,1,3.1l-2.9,3.2l35.5,31.5c0.8,0.8,0.9,2.1,0.2,2.9c-0.4,0.5-1,0.7-1.5,0.7
			c-0.5,0-1-0.2-1.4-0.5L13,17.3l-2.9,3.2c-1,1.1-2.7,0.7-3.2-0.7l-4-12.1C2.4,6.4,3.6,5.1,5,5.4z"/>
	</g>
</g>
<g class="st0">
	<path class="st6" d="M48.7,18L18,6.6c-4.7-1.8-9.6,2.3-8.8,7.3l5.5,32.3c0.8,5,6.8,7.2,10.7,4l7.8-6.5c0.2,0.3,0.3,0.5,0.5,0.8
		l14.6,18.4l-4,13.7c-0.6,2-0.2,4.2,1.1,5.8l8.3,10.4c3.3,4.1,9.8,2.8,11.3-2.2l2.2-7.7c0.8-2.7,3.1-4.5,5.9-4.7l8-0.4
		c5.3-0.3,8-6.4,4.7-10.5l-8.2-10.4c-1.3-1.6-3.3-2.5-5.4-2.4l-14.3,0.7L43.3,36.7c-0.2-0.3-0.5-0.6-0.8-0.8l8.1-6.7
		C54.5,26,53.5,19.7,48.7,18z"/>
	<path class="st7" d="M11.7,7.6c1.7-1.3,4-1.9,6.4-1L48.7,18c4.7,1.8,5.8,8,1.9,11.2l-8.1,6.7c0.3,0.3,0.6,0.5,0.8,0.8l14.6,18.4
		l14.3-0.7c2.1-0.1,4.1,0.8,5.4,2.4l8.2,10.4c2.4,3,1.6,7-1.1,9.1c-1,0.8-2.2,1.3-3.7,1.4l-8,0.4c-1.4,0.1-2.7,0.6-3.7,1.4
		c-1,0.8-1.8,1.9-2.2,3.3L65,90.5c-0.4,1.4-1.2,2.5-2.2,3.3c-2.6,2.1-6.7,1.9-9.1-1l-8.3-10.4c-1.3-1.6-1.7-3.8-1.1-5.8l4-13.7
		L33.7,44.3c-0.2-0.2-0.3-0.5-0.5-0.8L25.4,50c0,0-0.1,0.1-0.1,0.1c-3.9,3.1-9.7,0.9-10.5-4.1L9.3,13.8C8.8,11.3,9.9,9,11.7,7.6
		 M9.1,4.3C6,6.8,4.5,10.7,5.2,14.5l5.5,32.3c0.6,3.8,3.1,6.8,6.7,8.2c3.6,1.4,7.5,0.8,10.5-1.6l0.2-0.1l4.5-3.7l11.2,14.2
		l-3.4,11.7c-1,3.3-0.2,6.9,1.9,9.5l8.3,10.4c3.6,4.6,10.3,5.4,14.9,1.7c1.7-1.4,3-3.2,3.6-5.4l2.2-7.7c0.1-0.5,0.4-0.9,0.8-1.2
		c0.4-0.3,0.8-0.5,1.3-0.5l8-0.4c2.2-0.1,4.3-0.9,6-2.3c2.1-1.7,3.6-4.2,3.9-6.9c0.4-2.9-0.4-5.7-2.2-8l-8.2-10.4
		c-2.1-2.7-5.4-4.2-8.8-4l-12.1,0.6L48.4,36.4l4.9-4c3-2.5,4.4-6.2,3.7-10c-0.6-3.8-3.2-6.9-6.8-8.2L19.5,2.7
		C15.9,1.4,12.1,2,9.1,4.3L9.1,4.3z"/>
</g>
<g>
	<path class="st8" d="M46.9,16.8L16.1,5.9c-4.7-1.7-9.5,2.4-8.6,7.3l5.9,32.1c0.9,5,6.8,7.1,10.7,3.8l7.7-6.6
		c0.2,0.3,0.3,0.5,0.5,0.8l14.8,18.1l-3.8,13.7c-0.6,2-0.1,4.2,1.2,5.8l8.4,10.3c3.3,4.1,9.8,2.7,11.2-2.4l2.1-7.7
		c0.7-2.7,3.1-4.6,5.8-4.7L80,76c5.2-0.3,7.9-6.4,4.6-10.5l-8.4-10.3c-1.3-1.6-3.3-2.5-5.4-2.4l-14.2,0.9L41.8,35.6
		c-0.3-0.3-0.5-0.6-0.8-0.8l8-6.8C52.8,24.7,51.6,18.5,46.9,16.8z"/>
	<path class="st8" d="M9.8,7c1.7-1.4,4-1.9,6.3-1.1l30.7,10.9c4.7,1.7,5.9,7.9,2,11.1l-8,6.8c0.3,0.2,0.6,0.5,0.8,0.8l14.8,18.2
		l14.2-0.9c2.1-0.1,4.1,0.7,5.4,2.4l8.4,10.3c2.4,3,1.7,7-0.9,9.1c-1,0.8-2.2,1.3-3.6,1.4L72,76.5c-1.4,0.1-2.6,0.6-3.7,1.4
		c-1,0.8-1.8,2-2.1,3.3l-2.1,7.7c-0.4,1.4-1.1,2.5-2.1,3.3c-2.6,2.1-6.7,2-9.1-0.9L44.6,81c-1.3-1.6-1.8-3.8-1.2-5.8l3.8-13.7
		L32.3,43.3c-0.2-0.2-0.4-0.5-0.5-0.8l-7.7,6.6c0,0-0.1,0.1-0.1,0.1c-3.8,3.1-9.7,1-10.6-3.9L7.5,13.3C7,10.7,8.1,8.4,9.8,7
		 M7.2,3.8c-3,2.5-4.5,6.4-3.8,10.2l5.9,32.1c0.7,3.7,3.2,6.8,6.8,8.1c3.6,1.3,7.5,0.7,10.4-1.7l0.2-0.2l4.4-3.8l11.4,13.9
		l-3.2,11.7c-0.9,3.3-0.2,6.8,2,9.5l8.4,10.3c3.7,4.5,10.4,5.2,14.9,1.5c1.7-1.4,2.9-3.2,3.5-5.4l2.1-7.7c0.1-0.5,0.4-0.9,0.8-1.2
		c0.4-0.3,0.8-0.5,1.3-0.5l7.9-0.5c2.2-0.1,4.3-0.9,6-2.3c2.1-1.7,3.5-4.2,3.8-6.9c0.4-2.9-0.4-5.7-2.3-8l-8.4-10.3
		c-2.2-2.6-5.5-4.1-8.9-3.9l-12.1,0.8L46.8,35.2l4.8-4.1c2.9-2.5,4.3-6.3,3.6-10c-0.7-3.8-3.3-6.8-6.9-8.1L17.5,2
		C14,0.8,10.1,1.4,7.2,3.8L7.2,3.8z"/>
</g>
</svg>
